<?xml version="1.0" encoding="utf-8"?>
<!-- Generator: Adobe Illustrator 26.0.3, SVG Export Plug-In . SVG Version: 6.00 Build 0)  -->
<svg version="1.1" id="Слой_1" xmlns="http://www.w3.org/2000/svg" xmlns:xlink="http://www.w3.org/1999/xlink" x="0px" y="0px"
	 viewBox="0 0 90 90" style="enable-background:new 0 0 90 90;" xml:space="preserve">
<style type="text/css">
	.st0{fill:#D04B9B;}
	.st1{fill-rule:evenodd;clip-rule:evenodd;fill:#2E2D42;}
	.st2{fill-rule:evenodd;clip-rule:evenodd;fill:#FEFEFE;}
</style>
<g>
	<rect class="st0" width="90" height="90"/>
</g>
<g>
	<g>
		<path class="st1" d="M43.1,34.2h0.5l0.5-0.4l0.5,0.4h1.3l0.5-0.4l0.5,0.4h0.5l-1,7.2h-2.2C44.1,41.4,43.1,34.2,43.1,34.2z
			 M45.2,20.4c4.9,0,9,4.1,9,9.1c0,0-0.1,4.5-3.8,9.3c-0.5,0.6-0.8,1.5-1,2.6h-0.9l1.4-10l-1.6-0.2l-0.1-0.1L48,31.2l-0.2,0l0,0.2
			l-0.2,0.2l-0.5-0.5h-1.3l-0.5,0.5l-0.5-0.5h-1.3l-0.5,0.5l-0.2-0.2l0-0.2l-0.2,0l-0.1-0.1l-0.1,0.1l-1.6,0.2l1.4,10H41
			c-0.2-1.1-0.5-2-1-2.7c-3.6-4.7-3.8-9.2-3.8-9.3C36.3,24.4,40.3,20.4,45.2,20.4L45.2,20.4z M25.6,30h8.8c0,0.2,0.1,1,0.3,2
			c0.4,1.9,1.4,5,3.8,8.1c0.3,0.5,0.6,1.3,0.7,2.4l0.1,0.9h0.3l0,0h2v1h-2v2.1h11.2v-2.1h-7.1v-1h7.1h0h0.3l0.1-0.9
			c0.1-1.1,0.3-2,0.7-2.4C54,37,55,34,55.4,32c0.2-1,0.3-1.8,0.3-2l8.8,0c0.2,0,0.4,0.2,0.4,0.4v25.4H25.1V30.5
			C25.1,30.2,25.3,30,25.6,30L25.6,30z M71,59c-0.6,0.4-1.6,1-2.2,1H21.3c-0.6,0-1.6-0.5-2.2-1v-1.1H71C71,57.9,71,59,71,59z
			 M66.9,30.4c0-1.3-1.1-2.4-2.4-2.4H56c-0.9-5.1-5.2-9-10.5-9s-9.6,3.9-10.5,9h-8.5c-1.3,0-2.4,1.1-2.4,2.4v25.4H17V60l0.4,0.3
			c0.2,0.2,2.2,1.7,3.8,1.7h47.5c1.7,0,3.6-1.5,3.8-1.7L73,60v-4.2l-6.1,0L66.9,30.4L66.9,30.4z"/>
		<path class="st2" d="M41.4,49.6h7.1v-2.1h-7.1C41.4,47.6,41.4,49.6,41.4,49.6z M27.2,53.8h35.6V32.1h-7.3c-0.4,1.9-1.4,4.9-3.9,8
			c-0.4,0.5-0.6,1.3-0.7,2.4l-0.1,0.9h-0.3l0,0h-7.1v1h7.1v2.1H39.4v-2.1h2v-1h-2l0,0h-0.3l-0.1-0.9c-0.1-1.1-0.3-1.9-0.6-2.4
			c-2.4-3.1-3.3-6.1-3.7-8h-7.5C27.2,32.1,27.2,53.8,27.2,53.8z"/>
		<path class="st1" d="M41.4,49.6h7.1v-2.1h-7.1V49.6z"/>
	</g>
</g>
</svg>
