<?xml version="1.0" encoding="utf-8"?>
<!-- Generator: Adobe Illustrator 26.0.3, SVG Export Plug-In . SVG Version: 6.00 Build 0)  -->
<svg version="1.1" id="Слой_1" xmlns="http://www.w3.org/2000/svg" xmlns:xlink="http://www.w3.org/1999/xlink" x="0px" y="0px"
	 viewBox="0 0 90 90" style="enable-background:new 0 0 90 90;" xml:space="preserve">
<style type="text/css">
	.st0{fill:#F47E3D;}
	.st1{fill:none;stroke:#2E2E41;stroke-width:2;}
	.st2{fill-rule:evenodd;clip-rule:evenodd;fill:#FFFFFF;}
</style>
<g>
	<rect class="st0" width="90" height="90"/>
</g>
<g>
	<g>
		<path class="st1" d="M55.9,61.2l3.7,1.6l1.9-3.3l-7.9-22.8"/>
		<path class="st2" d="M39.2,17.5c-1.8,1.3,0.5,5.8,1.9,8.2c2.8-0.4,5.7-0.5,8.5-0.1c1.4-2.4,3.6-6.8,1.8-8.1
			C51.4,17.5,46.3,14,39.2,17.5"/>
		<path class="st1" d="M39.2,17.5c-1.8,1.3,0.5,5.8,1.9,8.2c2.8-0.4,5.7-0.5,8.5-0.1c1.4-2.4,3.6-6.8,1.8-8.1
			C51.4,17.5,46.3,14,39.2,17.5z"/>
		<path class="st2" d="M42,29.9L38.5,67l7.1,7l6.6-7l-3.6-37.2"/>
		<path class="st1" d="M42,29.9L38.5,67l7.1,7l6.6-7l-3.6-37.2"/>
	</g>
</g>
</svg>
