<?xml version="1.0" encoding="utf-8"?>
<!-- Generator: Adobe Illustrator 26.0.3, SVG Export Plug-In . SVG Version: 6.00 Build 0)  -->
<svg version="1.1" id="Слой_1" xmlns="http://www.w3.org/2000/svg" xmlns:xlink="http://www.w3.org/1999/xlink" x="0px" y="0px"
	 viewBox="0 0 90 90" style="enable-background:new 0 0 90 90;" xml:space="preserve">
<style type="text/css">
	.st0{fill:#63C9E0;}
	.st1{fill-rule:evenodd;clip-rule:evenodd;fill:#2E2D42;}
	.st2{fill-rule:evenodd;clip-rule:evenodd;fill:#FEFEFE;}
</style>
<g>
	<rect class="st0" width="90" height="90"/>
</g>
<g>
	<g>
		<path class="st1" d="M49.1,67.9c0,0.2,0.1,0.4,0.1,0.6h-8.8c0.1-0.2,0.1-0.4,0.1-0.6c0.1-0.7,0.1-1.8,0.1-2.8c0-0.2,0-0.4,0-0.6
			H49l0,0.6C49,66.1,49,67.2,49.1,67.9L49.1,67.9z M67.1,62.5H23.4c-0.2,0.2-0.5-0.2-0.4-0.4v-3.6h44v3.7
			C67.3,62.5,67.1,62.7,67.1,62.5z M70,57.5V31.1c-0.8-1.2-3-1.6-3-1.6h-7v-2h-2v27h2v-23h6.7c0.2,0,0.3,0.1,0.3,0.3v25.7H23V30.8
			c0-0.2,0.1-0.3,0.3-0.3H30v24h2v-33h21v-2H30v10h-6.8c0,0-2.3,0.4-3.2,1.6v28.4h1v2.4c0,1.3,1.2,2.6,2.5,2.6H39l0,0.6
			c0,0.4,0,0.8,0,1.2c0,0.5,0,0.9-0.1,1.2c-0.1,0.3-0.1,0.4-0.1,0.5c0,0-0.1,0.1-0.2,0.1l-0.1,0c-0.2,0.1-0.5,0.2-0.7,0.4H37v2h14.4
			c0,0,0,0,0,0l0,0H53v-2h-1.3c-0.3-0.1-0.5-0.2-0.8-0.4c-0.1,0-0.1-0.1-0.2-0.1c-0.1-0.2-0.1-0.3-0.1-0.5c-0.1-0.3-0.1-0.7-0.1-1.1
			c0-0.4,0-0.9,0-1.3c0-0.2,0-0.4,0-0.6h16.3c1.4,0,2.2-1.3,2.2-2.5v-4.5h0.2H70z"/>
		<path class="st2" d="M26,54.5h4v-21h-4L26,54.5z M61,54.5h4v-21h-4V54.5z M53,27.5h7.6L53,19.9v1.9V27.5z"/>
		<path class="st1" d="M54,30.5v-2H40v2L54,30.5z M40,33.5h14v-2H40V33.5z M35.1,30.7l-1.1,1.7l2.1,1.4l2.7-3.4l-0.6-0.5l-0.9-0.7
			l-0.6,0.7l-1,1.3L35.1,30.7z M40,39.5h14v-2H40V39.5z M40,43.5h14v-2H40V43.5z M38.9,39.5l-1.5-1.2l-1.6,2l-0.7-0.4L34,41.5
			l2.2,1.4L38.9,39.5z M40,49.5h14v-2H40V49.5z M40,52.5h14v-2H40V52.5z M38.9,48.7l-1.5-1.2l-1.6,2L35.1,49L34,50.7l2.2,1.4
			L38.9,48.7z"/>
	</g>
</g>
</svg>
